<svg xmlns="http://www.w3.org/2000/svg" viewBox="0 0 90 90.03"><defs><style>.cls-1{fill:#c7c7c7;}.cls-2{fill:#868686;}.cls-3{fill:none;stroke:#c7c7c7;stroke-miterlimit:10;stroke-width:7px;}</style></defs><title>avatar-icon</title><g id="Layer_2" data-name="Layer 2"><g id="Layer_1-2" data-name="Layer 1"><circle class="cls-1" cx="46.01" cy="45.01" r="43.99"/><path class="cls-2" d="M45,0A45,45,0,1,0,90,45,45,45,0,0,0,45,0M71.29,77c-.89-.4-2-.89-2.54-1.1a56.41,56.41,0,0,0-8.06-2.17c-3.75-.73-5.07-2.5-5.28-6.42,0-.57-.78-5.33-.18-5.63,2.49-1.24,2.89-5.19,3.12-7.61.17-1.78,1.1-2.59,1.92-4a22.86,22.86,0,0,0,1.82-5.15c.35-1.27,1-3.4.75-4.72s-1.15-2.35-1.15-3.65c0-1.67.65-3.45.83-5.12a25.19,25.19,0,0,0-.28-7.75C60.87,16.74,54.18,14.24,48,12.9c-5.87-1.25-12.74,1.78-16.71,5.91-1.63,1.69-3.63,3.82-3.94,6.26a26.94,26.94,0,0,0,.08,7.12c.17,1.17.27,2.35.42,3.52.13.93.81,1.81.55,2.76A7.81,7.81,0,0,1,27.62,40c-1.2,2.42.07,5.72,1.15,7.95a15.61,15.61,0,0,0,1.84,3,4.44,4.44,0,0,1,1,3.24c.09,2.46.8,6.6,3.29,7.84.6.3-.26,4.67-.29,5.24-.22,3.92.27,5.69-3.48,6.42a56.06,56.06,0,0,0-8.06,2.17c-1,.36-2.58,1-3.83,1.51A41.4,41.4,0,1,1,71.29,77"/><ellipse class="cls-3" cx="45" cy="45.01" rx="41.4" ry="41.51"/></g></g></svg>