<svg xmlns="http://www.w3.org/2000/svg" viewBox="0 0 88 84"><defs><style>.cls-1{fill:#7f868c;}</style></defs><title>bigRightArrow</title><g id="Layer_2" data-name="Layer 2"><g id="Layer_1-2" data-name="Layer 1"><path class="cls-1" d="M54.65.13,87.84,32.45a.61.61,0,0,1,0,.82L54.65,65.59a.6.6,0,0,1-1-.43V45.28a51.93,51.93,0,0,0-30.36,7c-10,6-18.45,15.92-22.18,31.24A.62.62,0,0,1,.5,84a.61.61,0,0,1-.5-.65C.09,61.72,6.14,46.13,15.93,35.68s23-15.61,37.76-16.82V.53A.59.59,0,0,1,54.65.13Zm.18,1.76V19.36c0,.4-.4.58-.71.61-14.67,1.15-27.83,6.34-37.36,16.5C7.87,46,2.1,59.79,1.25,78.86c4.27-13.18,12.3-22.08,21.51-27.58a52.82,52.82,0,0,1,31.43-7.11.62.62,0,0,1,.64.61v19l31.79-31Z"/></g></g></svg>