<svg xmlns="http://www.w3.org/2000/svg" viewBox="0 0 93.5 83.8"><defs><style>.cls-1{fill:#7f868c;}</style></defs><title>chatbox</title><g id="Layer_2" data-name="Layer 2"><g id="Layer_1-2" data-name="Layer 1"><path class="cls-1" d="M76.4,0H17A17,17,0,0,0,0,17V50A17,17,0,0,0,17,67h5l9.3,14.6a4.8,4.8,0,0,0,3.9,2.2,4.45,4.45,0,0,0,3.9-2.2L48.4,67H76.5a17,17,0,0,0,17-17V17A17.2,17.2,0,0,0,76.4,0Zm0,61.1H46.7a2.85,2.85,0,0,0-2.5,1.4l-9,14.2-9-14.2a3,3,0,0,0-2.5-1.4H17.1a11,11,0,0,1-11-11v-33a11,11,0,0,1,11-11H76.5a11,11,0,0,1,11,11v33A11.18,11.18,0,0,1,76.4,61.1Z"/></g></g></svg>