<svg xmlns="http://www.w3.org/2000/svg" viewBox="0 0 174.81 174.81"><defs><style>.cls-1{fill:#e0e6ea;}.cls-2{fill:#737c84;}</style></defs><title>circle-calendar</title><g id="Layer_2" data-name="Layer 2"><g id="Layer_1-2" data-name="Layer 1"><circle class="cls-1" cx="87.41" cy="87.41" r="87.41"/><path class="cls-2" d="M105.09,110.84H92.66a5.2,5.2,0,0,1-5.2-5.2V93.21a5.2,5.2,0,0,1,5.2-5.2h12.43a5.2,5.2,0,0,1,5.2,5.2v12.43A5.2,5.2,0,0,1,105.09,110.84ZM92.66,91.32a1.89,1.89,0,0,0-1.88,1.89v12.43a1.88,1.88,0,0,0,1.88,1.88h12.43a1.89,1.89,0,0,0,1.89-1.88V93.21a1.89,1.89,0,0,0-1.89-1.89Z"/><path class="cls-2" d="M72.5,63.92H70.82a5.4,5.4,0,0,1-5.4-5.39V47.7a5.4,5.4,0,0,1,5.4-5.39H72.5a5.4,5.4,0,0,1,5.4,5.39V58.53A5.4,5.4,0,0,1,72.5,63.92ZM70.82,46.45a1.25,1.25,0,0,0-1.25,1.25V58.53a1.25,1.25,0,0,0,1.25,1.25H72.5a1.25,1.25,0,0,0,1.25-1.25V47.7a1.25,1.25,0,0,0-1.25-1.25Z"/><path class="cls-2" d="M104,63.92h-1.68a5.4,5.4,0,0,1-5.4-5.39V47.7a5.4,5.4,0,0,1,5.4-5.39H104a5.4,5.4,0,0,1,5.4,5.39V58.53A5.4,5.4,0,0,1,104,63.92Zm-1.68-17.47a1.25,1.25,0,0,0-1.25,1.25V58.53a1.25,1.25,0,0,0,1.25,1.25H104a1.26,1.26,0,0,0,1.26-1.25V47.7A1.26,1.26,0,0,0,104,46.45Z"/><path class="cls-2" d="M98.67,56.1h-21a2.07,2.07,0,0,1,0-4.14h21a2.07,2.07,0,0,1,0,4.14Z"/><path class="cls-2" d="M108.66,122.86H66.15A14.21,14.21,0,0,1,52,108.66V66.15A14.2,14.2,0,0,1,66.15,52a2.07,2.07,0,0,1,0,4.14A10.06,10.06,0,0,0,56.1,66.15v42.51a10.07,10.07,0,0,0,10.05,10.06h42.51a10.07,10.07,0,0,0,10-10.06V66.15a10.06,10.06,0,0,0-10-10.05,2.07,2.07,0,1,1,0-4.14,14.21,14.21,0,0,1,14.2,14.19v42.51A14.22,14.22,0,0,1,108.66,122.86Z"/><path class="cls-2" d="M118.9,72.57h-63a2.08,2.08,0,0,1,0-4.15h63a2.08,2.08,0,0,1,0,4.15Z"/></g></g></svg>