<svg xmlns="http://www.w3.org/2000/svg" viewBox="0 0 512 511.72"><defs><style>.cls-1{fill:#d7d9db;}</style></defs><title>Asset 1</title><g id="Layer_2" data-name="Layer 2"><g id="Capa_1" data-name="Capa 1"><path class="cls-1" d="M491.56,156.2c-27-62.93-72.86-108.7-136.32-135.76A251.61,251.61,0,0,0,255.58,0,249,249,0,0,0,156.2,20.44c-62.93,27-109,72.73-136,135.76a255.72,255.72,0,0,0,0,199c27,63,73.12,109.05,136,136.05a249.11,249.11,0,0,0,99.38,20.43,251.77,251.77,0,0,0,99.66-20.43c63.45-27.07,109.32-73.12,136.32-136a252.5,252.5,0,0,0,0-199ZM450.7,368.68a224.73,224.73,0,0,1-82.3,82c-34.47,20.09-72.23,30.23-112.81,30.23A216.8,216.8,0,0,1,168.24,463c-27.71-12-51.64-27.85-71.66-47.86S60.63,371,48.71,343.2a220.52,220.52,0,0,1-17.63-87.62q0-60.89,30-112.53a224.62,224.62,0,0,1,82-82Q194.7,30.79,255.58,30.79c40.59,0,78.35,10.14,112.81,30.24a225.18,225.18,0,0,1,82.3,82q30.24,51.64,30.23,112.53C480.92,296.17,470.91,334,450.7,368.68Z"/><path class="cls-1" d="M271.82,253.34v-145c0-8.67-7.56-15.67-16.24-15.67a15.78,15.78,0,0,0-15.4,15.67V255.58a12.7,12.7,0,0,1,.56,2.24,14.66,14.66,0,0,0,4.2,12.6l83.71,83.7c5.6,5.6,16,5.6,21.55,0a15.1,15.1,0,0,0,0-21.84Z"/></g></g></svg>