<svg xmlns="http://www.w3.org/2000/svg" viewBox="0 0 408.78 408.79"><defs><style>.cls-1{fill:#bbb;}</style></defs><title>Facebook-gray</title><g id="Layer_2" data-name="Layer 2"><g id="Layer_1-2" data-name="Layer 1"><path class="cls-1" d="M353.7,0H55.09A55.08,55.08,0,0,0,0,55.08V353.7a55.09,55.09,0,0,0,55.08,55.09H202.36l.25-146.08h-38a9,9,0,0,1-8.95-8.92l-.19-47.09a9,9,0,0,1,9-9h37.88v-45.5c0-52.8,32.25-81.55,79.35-81.55h38.65a9,9,0,0,1,8.95,9v39.7a9,9,0,0,1-8.95,9H296.64c-25.61,0-30.57,12.17-30.57,30v39.39h56.28a9,9,0,0,1,8.9,10l-5.58,47.09a9,9,0,0,1-8.9,7.9H266.32l-.25,146.08H353.7a55.08,55.08,0,0,0,55.08-55.09V55.08A55.08,55.08,0,0,0,353.7,0Z"/></g></g></svg>