<svg xmlns="http://www.w3.org/2000/svg" viewBox="0 0 272 336.94"><defs><style>.cls-1{fill:#d7d9db;}</style></defs><title>mapPin</title><g id="Layer_2" data-name="Layer 2"><g id="Layer_1-2" data-name="Layer 1"><path class="cls-1" d="M136,336.94l-3.58-1.79c-1.35-.67-33.53-16.95-66.08-49.49C22.94,242.26,0,190.5,0,136,0,61,61,0,136,0S272,61,272,136c0,54.5-22.94,106.26-66.34,149.66-32.55,32.54-64.73,48.82-66.08,49.5ZM136,16A120.13,120.13,0,0,0,16,136a178.36,178.36,0,0,0,19.15,80.42c10.24,20.47,24.54,40,42.51,57.92a279.28,279.28,0,0,0,57.27,44,2.13,2.13,0,0,0,2.13,0A280.2,280.2,0,0,0,194.69,274C212.58,256,226.8,236.58,237,216.16A178.24,178.24,0,0,0,256,136,120.13,120.13,0,0,0,136,16Z"/><path class="cls-1" d="M136,144a40,40,0,1,1,40-40A40,40,0,0,1,136,144Zm0-64a24,24,0,1,0,24,24A24,24,0,0,0,136,80Z"/></g></g></svg>