<svg xmlns="http://www.w3.org/2000/svg" viewBox="0 0 70.9 80.55"><defs><style>.cls-1{fill:#fcc7d0;}</style></defs><title>pinkCalendar</title><g id="Layer_2" data-name="Layer 2"><g id="Layer_1-2" data-name="Layer 1"><path class="cls-1" d="M53.14,68.53H40.71a5.21,5.21,0,0,1-5.21-5.2V50.9a5.21,5.21,0,0,1,5.21-5.2H53.14a5.2,5.2,0,0,1,5.2,5.2V63.33A5.2,5.2,0,0,1,53.14,68.53ZM40.71,49a1.89,1.89,0,0,0-1.89,1.89V63.33a1.89,1.89,0,0,0,1.89,1.89H53.14A1.89,1.89,0,0,0,55,63.33V50.9A1.89,1.89,0,0,0,53.14,49Z"/><path class="cls-1" d="M20.55,21.62H18.86a5.4,5.4,0,0,1-5.39-5.4V5.4A5.4,5.4,0,0,1,18.86,0h1.69a5.4,5.4,0,0,1,5.39,5.4V16.22A5.4,5.4,0,0,1,20.55,21.62ZM18.86,4.14A1.26,1.26,0,0,0,17.61,5.4V16.22a1.25,1.25,0,0,0,1.25,1.25h1.69a1.25,1.25,0,0,0,1.25-1.25V5.4a1.26,1.26,0,0,0-1.25-1.26Z"/><path class="cls-1" d="M52,21.62H50.35A5.4,5.4,0,0,1,45,16.22V5.4A5.4,5.4,0,0,1,50.35,0H52a5.4,5.4,0,0,1,5.39,5.4V16.22A5.4,5.4,0,0,1,52,21.62ZM50.35,4.14A1.26,1.26,0,0,0,49.1,5.4V16.22a1.25,1.25,0,0,0,1.25,1.25H52a1.25,1.25,0,0,0,1.25-1.25V5.4A1.26,1.26,0,0,0,52,4.14Z"/><path class="cls-1" d="M46.72,13.79h-21a2.07,2.07,0,0,1,0-4.14h21a2.07,2.07,0,1,1,0,4.14Z"/><path class="cls-1" d="M56.71,80.55H14.19A14.21,14.21,0,0,1,0,66.35V23.84A14.21,14.21,0,0,1,14.19,9.65a2.07,2.07,0,1,1,0,4.14,10.06,10.06,0,0,0-10,10.05V66.36a10.06,10.06,0,0,0,10.05,10H56.71a10.06,10.06,0,0,0,10.05-10V23.84a10.06,10.06,0,0,0-10.05-10,2.07,2.07,0,1,1,0-4.14A14.21,14.21,0,0,1,70.9,23.84V66.35A14.21,14.21,0,0,1,56.71,80.55Z"/><path class="cls-1" d="M66.94,30.26H4a2.08,2.08,0,0,1,0-4.15h63a2.08,2.08,0,1,1,0,4.15Z"/></g></g></svg>