<svg xmlns="http://www.w3.org/2000/svg" viewBox="0 0 410.15 341.17"><defs><style>.cls-1{fill:#bbb;}</style></defs><title>Twitter-gray</title><g id="Layer_2" data-name="Layer 2"><g id="Layer_1-2" data-name="Layer 1"><path class="cls-1" d="M403.63,39.69a162.51,162.51,0,0,1-28.28,9.54,88.22,88.22,0,0,0,23.28-37.07h0a4.63,4.63,0,0,0-6.77-5.39h0a163.42,163.42,0,0,1-43.23,17.87,11.15,11.15,0,0,1-2.7.33,11.46,11.46,0,0,1-7.57-2.89A88.44,88.44,0,0,0,279.85,0a94.59,94.59,0,0,0-28,4.33A85.65,85.65,0,0,0,194.1,66.05,94.23,94.23,0,0,0,192,98.61a3.15,3.15,0,0,1-.8,2.48,3.27,3.27,0,0,1-2.43,1.11l-.32,0C125.69,96.35,69.09,66.11,29.09,17h0a4.63,4.63,0,0,0-7.58.59h0A88.54,88.54,0,0,0,35.9,125.12a78.93,78.93,0,0,1-20.17-7.81h0a4.63,4.63,0,0,0-6.87,4h0a88.53,88.53,0,0,0,51.65,81.57l-1.89,0a79.82,79.82,0,0,1-14.9-1.42h0a4.62,4.62,0,0,0-5.27,5.95h0a88.64,88.64,0,0,0,70,60.28,163.16,163.16,0,0,1-91.39,27.75H6.83a6.79,6.79,0,0,0-6.62,5.11,7,7,0,0,0,3.36,7.74,242.7,242.7,0,0,0,122,32.88c37.49,0,72.55-7.44,104.22-22.11A230.2,230.2,0,0,0,306,261.92a250.43,250.43,0,0,0,46.69-78.2,247.1,247.1,0,0,0,15.87-85.59V96.79a15.07,15.07,0,0,1,5.63-11.72,174.46,174.46,0,0,0,35.16-38.59h0a4.62,4.62,0,0,0-5.72-6.79Z"/></g></g></svg>