<svg xmlns="http://www.w3.org/2000/svg" viewBox="0 0 6170.8 4926.62"><defs><style>.cls-1{fill:#fff;}</style></defs><title>white-two-avatars</title><g id="Layer_2" data-name="Layer 2"><g id="Layer_1-2" data-name="Layer 1"><path class="cls-1" d="M4058.67,2596.39c-638.48,0-1156.08-517.6-1156.08-1156.09S3420.19,284.22,4058.67,284.22,5214.76,801.82,5214.76,1440.3,4697.16,2596.39,4058.67,2596.39Z"/><path class="cls-1" d="M3055,2467c260,247.83,613.84,400.32,1003.72,400.32S4802.43,2714.82,5062.39,2467c44.77-11.1,89.54-22.07,133-27.61s85.54-5.55,124.76.51,75.21,18.06,117.4,33.16,90.31,33,150.56,69.15,132.5,90.31,201.65,180.75c69.28,90.18,135.46,216.74,195.71,367.3S6099.91,3415.36,6130,3584s36.13,331.18,39.1,454.51,3.09,207.84-9,289.12-36,159.46-90.3,237.77S5931.29,4722,5832,4782.12s-213.77,102.44-370.39,123.47-355.17,21-596,21H3251.82c-240.86,0-439.54,0-596-21s-271.05-63.22-370.39-123.47-183.59-138.43-237.77-216.74-78.31-156.49-90.31-237.77-12.13-165.65-9-289.12,9-286,39.09-454.51,84.24-343.3,144.49-493.73,126.44-277.12,195.72-367.3c69.15-90.44,141.52-144.63,201.64-180.75s108.37-54.19,150.56-69.15,78.31-27.22,117.4-33.16,81.28-6.06,124.76-.51S3010.18,2455.89,3055,2467Z"/><path class="cls-1" d="M2827.5,2010c-205.52,187.59-479.15,302.15-779.37,302.15-638.48,0-1156.08-517.6-1156.08-1156.08S1409.65,0,2048.13,0c410,0,770.34,213.52,975.47,535.4-231.45,211.33-376.72,515.8-376.72,853.94C2646.88,1617.69,2713.2,1830.82,2827.5,2010Z"/><path class="cls-1" d="M1108.4,2225.47c252.22,240.35,592.69,391.17,968.76,399.94l-41.54,49.8c-69.28,90.18-135.46,216.74-195.71,367.3s-114.44,325.12-144.5,493.74-36.12,331.17-39.09,454.51-3.1,207.84,9,289.12,36,159.46,90.31,237.77c40.38,58.31,97.41,116.75,164.88,167.46H1305.28c-240.87,0-439.55,0-596-21s-271.06-63.22-370.4-123.47-183.58-138.43-237.77-216.74S22.76,4167.38,10.76,4086.1s-12.13-165.65-9-289.12,9-286,39.09-454.51,84.25-343.31,144.5-493.73S311.75,2571.62,381,2481.44c69.15-90.44,141.53-144.63,201.65-180.75s108.37-54.19,150.55-69.15,78.31-27.22,117.41-33.16,81.27-6.06,124.75-.52S1063.64,2214.38,1108.4,2225.47Z"/></g></g></svg>