<svg xmlns="http://www.w3.org/2000/svg" viewBox="0 0 100 38"><defs><style>.cls-1{fill:#fff;}</style></defs><title>white-infinity</title><g id="Layer_2" data-name="Layer 2"><g id="Layer_1-2" data-name="Layer 1"><path class="cls-1" d="M80.83,0C69,0,56.38,9.49,50,15.06,43.62,9.49,31,0,19.17,0a19,19,0,1,0,0,38C31,38,43.62,28.51,50,22.94,56.38,28.51,69,38,80.83,38a19,19,0,1,0,0-38ZM5.72,19A13.41,13.41,0,0,1,19.17,5.67c9.16,0,20.12,7.66,26.65,13.28l0,.05,0,.05c-6.52,5.62-17.47,13.28-26.66,13.28A13.41,13.41,0,0,1,5.72,19ZM80.83,32.33c-9.16,0-20.12-7.66-26.65-13.28l0-.05,0-.05C60.69,13.33,71.64,5.67,80.83,5.67a13.33,13.33,0,1,1,0,26.66Z"/></g></g></svg>