<svg xmlns="http://www.w3.org/2000/svg" viewBox="0 0 1504 1057.78"><defs><style>.cls-1{fill:#bbb;}</style></defs><title>Youtube-gray</title><g id="Layer_2" data-name="Layer 2"><g id="Layer_1-2" data-name="Layer 1"><g id="Layer_1-3" data-name="Layer_1"><path class="cls-1" d="M1416,70.8a197.12,197.12,0,0,0-110.92-50.3c-91.45-10.24-183.72-15.39-276.3-18C936.82,0,844.44,0,752.26,0S567.72,0,475.72,2.52c-92.59,2.59-184.9,7.74-276.4,18A196.91,196.91,0,0,0,88.49,70.82a205.73,205.73,0,0,0-62,106.54C13.4,234.08,6.78,293.26,3.44,352.8.08,412.6,0,471.64,0,529s0,116.2,3.28,176c3.26,59.52,9.8,118.69,22.89,175.42A206.25,206.25,0,0,0,88.24,987,196.73,196.73,0,0,0,199,1037.29c91.51,10.23,183.81,15.38,276.4,18,92,2.57,184.38,2.57,276.55,2.52s184.6,0,276.58-2.52c92.58-2.58,184.86-7.73,276.36-18A196.84,196.84,0,0,0,1415.66,987a206.74,206.74,0,0,0,62.18-106.58c13-56.73,19.57-115.91,22.85-175.42,3.23-58.69,3.25-118.24,3.25-176h.06v-2.9h-.06c0-114.85,0-236.5-25.78-348.7A206.15,206.15,0,0,0,1416,70.8ZM546.12,757.32V244.25l23.38,12.2q106.2,55.46,212.07,110.68,127.5,66.54,255.8,133.52l27.17,14.19L1037.31,529,803.37,650.27Q686.58,710.83,569.44,771.51l-23.32,12.08V757.32Z"/></g></g></g></svg>